<svg width="32" height="32" viewBox="0 0 32 32" fill="none" xmlns="http://www.w3.org/2000/svg">
<path fill-rule="evenodd" clip-rule="evenodd" d="M7 6.65H13C13.1933 6.65 13.35 6.8067 13.35 7V13C13.35 13.1933 13.1933 13.35 13 13.35H7C6.8067 13.35 6.65 13.1933 6.65 13V7C6.65 6.8067 6.8067 6.65 7 6.65ZM5 7C5 5.89543 5.89543 5 7 5H13C14.1046 5 15 5.89543 15 7V13C15 14.1046 14.1046 15 13 15H7C5.89543 15 5 14.1046 5 13V7ZM7 18.65H13C13.1933 18.65 13.35 18.8067 13.35 19V25C13.35 25.1933 13.1933 25.35 13 25.35H7C6.8067 25.35 6.65 25.1933 6.65 25V19C6.65 18.8067 6.8067 18.65 7 18.65ZM5 19C5 17.8954 5.89543 17 7 17H13C14.1046 17 15 17.8954 15 19V25C15 26.1046 14.1046 27 13 27H7C5.89543 27 5 26.1046 5 25V19ZM25 6.65H19C18.8067 6.65 18.65 6.8067 18.65 7V13C18.65 13.1933 18.8067 13.35 19 13.35H25C25.1933 13.35 25.35 13.1933 25.35 13V7C25.35 6.8067 25.1933 6.65 25 6.65ZM19 5C17.8954 5 17 5.89543 17 7V13C17 14.1046 17.8954 15 19 15H25C26.1046 15 27 14.1046 27 13V7C27 5.89543 26.1046 5 25 5H19ZM22 25.35C20.1498 25.35 18.65 23.8502 18.65 22C18.65 20.1498 20.1498 18.65 22 18.65C23.8502 18.65 25.35 20.1498 25.35 22C25.35 23.8502 23.8502 25.35 22 25.35ZM17 22C17 19.2386 19.2386 17 22 17C24.7614 17 27 19.2386 27 22C27 24.7614 24.7614 27 22 27C19.2386 27 17 24.7614 17 22Z" fill="black"/>
</svg>
