<svg width="32" height="32" viewBox="0 0 32 32" fill="none" xmlns="http://www.w3.org/2000/svg">
<path fill-rule="evenodd" clip-rule="evenodd" d="M15.8252 3.68857C15.0324 3.40734 13.8539 3.12158 12.5134 3.03009C10.9832 2.92566 9.18703 3.07077 7.49327 3.81526C7.19368 3.94695 7.00024 4.24327 7.00024 4.57052V4.99996H3.82524C3.36961 4.99996 3.00024 5.36932 3.00024 5.82496V27.825C3.00024 28.2806 3.36961 28.65 3.82524 28.65H15H17H28C28.4557 28.65 28.8251 28.2806 28.8251 27.825V5.82496C28.8251 5.36932 28.4557 4.99996 28 4.99996H24.6502V4.57052C24.6502 4.24327 24.4568 3.94695 24.1572 3.81526C22.4635 3.07077 20.6673 2.92566 19.1371 3.03009C17.7966 3.12158 16.6181 3.40734 15.8252 3.68857ZM24.6502 6.64996V24.825C24.6502 25.1285 24.4836 25.4075 24.2164 25.5513C23.9492 25.6952 23.6245 25.6808 23.3711 25.5137C22.5342 24.9619 19.7383 24.0078 16.1612 25.5784L16.1572 25.5802C15.9476 25.6724 15.7066 25.674 15.4933 25.5802L15.4893 25.5785C11.9123 24.0078 9.11629 24.9619 8.27936 25.5137C8.02598 25.6808 7.70133 25.6952 7.43411 25.5513C7.16688 25.4075 7.00024 25.1285 7.00024 24.825V6.64996H4.65024V27H15H17H27.175V6.64996H24.6502ZM15.0002 5.15253C14.3541 4.95008 13.4393 4.74712 12.4011 4.67627C11.2059 4.5947 9.88983 4.69102 8.65024 5.13052V23.5333C10.1257 23.0293 12.377 22.7702 15.0002 23.6268V5.15253ZM16.6502 23.6268C19.2735 22.7702 21.5248 23.0293 23.0002 23.5333V5.13052C21.7607 4.69102 20.4446 4.5947 19.2494 4.67627C18.2112 4.74712 17.2963 4.95008 16.6502 5.15253V23.6268Z" fill="black"/>
</svg>
