<svg width="524" height="524" viewBox="0 0 524 524" fill="none" xmlns="http://www.w3.org/2000/svg">
<path d="M156.995 367.005C130.121 340.132 113.5 303.007 113.5 262C113.5 220.993 130.121 183.868 156.995 156.994L121.993 121.993C86.1619 157.824 64 207.324 64 262C64 316.676 86.1619 366.176 121.993 402.007L156.995 367.005Z" fill="#FBBC05"/>
<path d="M80.5 237.25H179.5V286.75H80.5V237.25Z" fill="#FBBC05"/>
<rect x="115.562" y="113.83" width="49.5" height="49.5" rx="24.75" fill="#4285F4"/>
<rect x="113.83" y="358.855" width="49.5" height="49.5" rx="24.75" fill="#EA4335"/>
<path d="M262 328C225.549 328 196 298.451 196 262C196 225.549 225.549 196 262 196C298.451 196 328 225.549 328 262H377.5C377.5 198.211 325.789 146.5 262 146.5C198.211 146.5 146.5 198.211 146.5 262C146.5 325.789 198.211 377.5 262 377.5V328Z" fill="#4285F4"/>
<path d="M262 328H410.5V377.5H262V328Z" fill="#4285F4"/>
<path d="M237.25 262H286.75V361H237.25V262Z" fill="#4285F4"/>
<rect x="328" y="237.25" width="49.5" height="49.5" rx="24.75" fill="#EA4335"/>
<rect x="237.25" y="237.25" width="49.5" height="49.5" rx="24.75" fill="#FBBC05"/>
<path d="M262 410.5V460C371.352 460 460 371.352 460 262C460 152.648 371.352 64 262 64V113.5C344.014 113.5 410.5 179.986 410.5 262C410.5 344.014 344.014 410.5 262 410.5Z" fill="#EA4335"/>
<rect x="237.25" y="64" width="49.5" height="49.5" rx="24.75" fill="#4285F4"/>
<rect x="237.25" y="410.5" width="49.5" height="49.5" rx="24.75" fill="#FBBC05"/>
</svg>
