<svg width="32" height="32" viewBox="0 0 32 32" fill="none" xmlns="http://www.w3.org/2000/svg">
<path fill-rule="evenodd" clip-rule="evenodd" d="M17.65 7.79674C18.3096 7.91499 18.9561 8.10408 19.5781 8.36173C20.7125 8.83161 21.7432 9.52032 22.6114 10.3886C23.4797 11.2568 24.1684 12.2875 24.6383 13.4219C24.8959 14.0439 25.085 14.6904 25.2033 15.35H17.65V7.79674ZM27 17C27 16.4464 26.9582 15.8949 26.8755 15.35C26.7425 14.4732 26.5036 13.6136 26.1627 12.7905C25.6099 11.4559 24.7996 10.2433 23.7782 9.22182C22.7567 8.20038 21.5441 7.39013 20.2095 6.83733C19.3864 6.49638 18.5268 6.25749 17.65 6.12445C17.1051 6.04179 16.5536 6 16 6V7.65V15.35V17H17.65H25.35L27 17ZM6 16.9999C6 11.9869 9.68874 7.83542 14.5 7.11169V8.78431C10.6043 9.49095 7.65 12.9004 7.65 16.9999C7.65 21.6115 11.3884 25.3499 16 25.3499C20.0995 25.3499 23.509 22.3957 24.2156 18.5H25.8882C25.1645 23.3112 21.013 26.9999 16 26.9999C10.4772 26.9999 6 22.5228 6 16.9999Z" fill="black"/>
</svg>
