<svg width="32" height="32" viewBox="0 0 32 32" fill="none" xmlns="http://www.w3.org/2000/svg">
<path d="M17.3337 15.4667V10.6667C17.3337 10.2889 17.2059 9.97221 16.9503 9.71666C16.6948 9.4611 16.3781 9.33332 16.0003 9.33332C15.6225 9.33332 15.3059 9.4611 15.0503 9.71666C14.7948 9.97221 14.667 10.2889 14.667 10.6667V15.9667C14.667 16.1444 14.7003 16.3167 14.767 16.4833C14.8337 16.65 14.9337 16.8 15.067 16.9333L19.467 21.3333C19.7114 21.5778 20.0225 21.7 20.4003 21.7C20.7781 21.7 21.0892 21.5778 21.3337 21.3333C21.5781 21.0889 21.7003 20.7778 21.7003 20.4C21.7003 20.0222 21.5781 19.7111 21.3337 19.4667L17.3337 15.4667ZM16.0003 29.3333C14.1559 29.3333 12.4225 28.9833 10.8003 28.2833C9.1781 27.5833 7.76699 26.6333 6.56699 25.4333C5.36699 24.2333 4.41699 22.8222 3.71699 21.2C3.01699 19.5778 2.66699 17.8444 2.66699 16C2.66699 14.1555 3.01699 12.4222 3.71699 10.8C4.41699 9.17777 5.36699 7.76666 6.56699 6.56666C7.76699 5.36666 9.1781 4.41666 10.8003 3.71666C12.4225 3.01666 14.1559 2.66666 16.0003 2.66666C17.8448 2.66666 19.5781 3.01666 21.2003 3.71666C22.8225 4.41666 24.2337 5.36666 25.4337 6.56666C26.6337 7.76666 27.5837 9.17777 28.2837 10.8C28.9837 12.4222 29.3337 14.1555 29.3337 16C29.3337 17.8444 28.9837 19.5778 28.2837 21.2C27.5837 22.8222 26.6337 24.2333 25.4337 25.4333C24.2337 26.6333 22.8225 27.5833 21.2003 28.2833C19.5781 28.9833 17.8448 29.3333 16.0003 29.3333ZM16.0003 26.6667C18.9559 26.6667 21.4725 25.6278 23.5503 23.55C25.6281 21.4722 26.667 18.9555 26.667 16C26.667 13.0444 25.6281 10.5278 23.5503 8.44999C21.4725 6.37221 18.9559 5.33332 16.0003 5.33332C13.0448 5.33332 10.5281 6.37221 8.45033 8.44999C6.37255 10.5278 5.33366 13.0444 5.33366 16C5.33366 18.9555 6.37255 21.4722 8.45033 23.55C10.5281 25.6278 13.0448 26.6667 16.0003 26.6667Z" fill="black"/>
</svg>
