<svg width="32" height="32" viewBox="0 0 32 32" fill="none" xmlns="http://www.w3.org/2000/svg">
<path fill-rule="evenodd" clip-rule="evenodd" d="M16 4H18.175C20.0113 4 21.5 5.48865 21.5 7.325V19.675C21.5 21.5113 20.0113 23 18.175 23H8.66667V23H8.325C7.39992 23 6.65 23.7499 6.65 24.675V24.675C6.65 25.0219 6.75545 25.3442 6.93605 25.6115C7.23706 26.057 7.74683 26.35 8.325 26.35H23.675C24.3688 26.35 24.9641 25.9282 25.2184 25.327C25.3031 25.1266 25.35 24.9063 25.35 24.675V24.675V23.9689V7H25.3687C25.4489 6.62841 25.7795 6.34998 26.1751 6.34998C26.5707 6.34998 26.9013 6.62841 26.9815 7H27V7.16218L27.0001 7.17498L27 7.18778V23.1586V24.675V24.675C27 25.3125 26.8206 25.9081 26.5095 26.4141C25.9245 27.3655 24.8738 28 23.675 28H8.325C6.48865 28 5 26.5113 5 24.675V24.675V20V7.325C5 5.48865 6.48865 4 8.325 4H16ZM6.65 20V21.8021C7.14188 21.5147 7.71421 21.35 8.325 21.35H10V5.65H8.325C7.45774 5.65 6.74442 6.30911 6.65865 7.15374C6.65293 7.21005 6.65 7.26718 6.65 7.325V20ZM11.65 5.65V21.35H18.1842C19.1051 21.345 19.85 20.597 19.85 19.675V7.325C19.85 6.39992 19.1001 5.65 18.175 5.65H16H11.65Z" fill="black"/>
</svg>
